<?xml version="1.0" encoding="iso-8859-1"?>
<!-- Generator: Adobe Illustrator 19.0.0, SVG Export Plug-In . SVG Version: 6.00 Build 0)  -->
<svg version="1.1" id="Layer_1" xmlns="http://www.w3.org/2000/svg" xmlns:xlink="http://www.w3.org/1999/xlink" x="0px" y="0px"
	 viewBox="0 0 432 432" style="enable-background:new 0 0 432 432;" xml:space="preserve">
<path style="fill:#FFE53C;" d="M160.023,332c0,0,0-28-38.4-62c-33.6-28-58.8-70.8-57.6-118.4c2.4-80,73.6-144.4,153.6-143.6
	c80.8,0.8,150.4,66.8,150.4,148c0,47.6-22.4,89.6-56.8,116.8c-38.8,30.4-39.2,59.2-39.2,59.2"/>
<g>
	<path style="fill:#C39215;" d="M272.023,340L272.023,340c-4.4,0-8-3.6-8-8c0-1.2,0.8-32.8,42.4-65.2c34-27.2,53.6-67.6,53.6-110.8
		c0-75.2-65.2-139.2-142.4-140c-0.4,0-0.8,0-1.6,0c-76,0-142,62-144,136c-1.2,40.8,19.6,82.8,54.8,112c40.8,36,41.2,66.8,41.2,68
		c0,4.4-3.6,8-8,8s-8-3.6-8-8c0-0.4-1.2-25.6-35.6-56c-38.8-32.4-61.6-79.2-60.4-124.8c2.4-82.4,75.6-151.2,160-151.2
		c0.4,0,1.2,0,1.6,0c86,0.8,158.4,72.4,158.4,156c0,48-22,93.2-60,123.2c-34.8,27.2-36,52.8-36,52.8
		C280.023,336.4,276.423,340,272.023,340z"/>
	<path style="fill:#C39215;" d="M228.023,336c-0.8,0-1.2,0-2-0.4c-4.4-1.2-6.8-5.6-5.6-9.6l32-124c1.2-4.4,5.6-6.8,9.6-5.6
		c4.4,1.2,6.8,5.6,5.6,9.6l-32,124C234.823,333.6,231.623,336,228.023,336z"/>
	<path style="fill:#C39215;" d="M200.023,336c-3.6,0-6.8-2.4-7.6-6l-32-124c-1.2-4.4,1.6-8.8,5.6-9.6c4.4-1.2,8.8,1.6,9.6,5.6
		l32,124c1.2,4.4-1.6,8.8-5.6,9.6C201.223,336,200.823,336,200.023,336z"/>
</g>
<path style="fill:#FFE53C;" d="M139.623,188c22.8-14,49.6-21.6,77.6-21.6c26.8,0.4,52,7.6,74,20.4"/>
<path style="fill:#C39215;" d="M139.623,196c-2.8,0-5.2-1.2-6.8-4c-2.4-3.6-1.2-8.8,2.8-11.2c24.4-14.8,52.4-22.8,81.6-22.8
	c27.6,0.4,54.4,8,78,21.6c4,2.4,5.2,7.2,2.8,10.8c-2.4,4-7.2,5.2-10.8,2.8c-21.2-12.4-45.2-18.8-70-19.2c-26,0-51.6,7.2-73.2,20.4
	C142.423,195.6,141.223,196,139.623,196z"/>
<path style="fill:#939598;" d="M272.023,332l-6.4,50.4c-3.2,24-23.6,41.6-47.6,41.6h-3.6c-24,0-44.4-18-47.6-41.6l-6.8-50.4H272.023
	z"/>
<path style="fill:#6D6E71;" d="M218.023,432h-3.6c-28,0-51.6-20.8-55.6-48.4l-6.8-50.4c-0.4-2.4,0.4-4.4,2-6.4s3.6-2.8,6-2.8h112
	c2.4,0,4.4,0.8,6,2.8c1.6,1.6,2.4,4,2,6.4l-6.4,50.4C270.023,411.2,246.023,432,218.023,432z M169.223,340l5.6,41.2
	c2.8,19.6,19.6,34.8,39.6,34.8h3.6c20,0,37.2-14.8,39.6-34.8l5.2-41.2H169.223z"/>
<g>
</g>
<g>
</g>
<g>
</g>
<g>
</g>
<g>
</g>
<g>
</g>
<g>
</g>
<g>
</g>
<g>
</g>
<g>
</g>
<g>
</g>
<g>
</g>
<g>
</g>
<g>
</g>
<g>
</g>
</svg>
